<?xml version="1.0" encoding="UTF-8" standalone="no"?> <svg id="Layer_1" data-name="Layer 1" xmlns="http://www.w3.org/2000/svg" viewBox="0 0 128 128"><defs><style>.cls-1{fill:#2d3e50;}.cls-2{fill:#2e79bd;}</style></defs><title>b</title><path class="cls-1" d="M53.56246,79.47757a2.65318,2.65318,0,1,0,1.87172.77578A2.67256,2.67256,0,0,0,53.56246,79.47757Z"/><path class="cls-1" d="M75.40941,82.12533a2.64869,2.64869,0,1,0-.77578,1.872A2.66784,2.66784,0,0,0,75.40941,82.12533Z"/><path class="cls-1" d="M94.85778,47.61021l-4.18276.73467h-.00632L77.672,50.63307,66.9782,52.515l-2.50712.44a8.87214,8.87214,0,0,1-1.221.13683l-.4526.021-.43363-.03788a9.24317,9.24317,0,0,1-.97257-.13051L41.30683,49.41214,31.0025,47.59968a32.44477,32.44477,0,0,0-.28421,4.29225v54.16986h8.26663c.2.019.39786.02737.59575.02737H52.83632V98.66036a22.92551,22.92551,0,0,1-2.8032-1.72877,20.82427,20.82427,0,0,1-3.16049-3.44341A19.994,19.994,0,0,1,42.90247,81.504v-8.5845a38.36637,38.36637,0,0,0,7.43511.71149c8.80976,0,16.43433-2.865,20.09924-7.033h.00211c2.5577,2.90923,7.0457,5.18269,12.51889,6.29207v8.614a20.091,20.091,0,0,1-7.149,15.364,5.05927,5.05927,0,0,1-.51011.376l-2.16526,1.40725v7.43791H86.29014c.19786,0,.38735-.0084.58522-.02737H95.142V51.89193a32.22087,32.22087,0,0,0-.16842-3.29866C94.93991,48.26486,94.902,47.93648,94.85778,47.61021Z"/><path class="cls-2" d="M123.24971,59.32174v-24.556a2.42384,2.42384,0,0,0,.02174-.30869,2.32429,2.32429,0,0,0-.1197-.75055,2.28664,2.28664,0,0,0-1.76315-1.53343L63.31855,21.95664a2.17824,2.17824,0,0,0-.3825-.03517v-.01063a2.17521,2.17521,0,0,0-.39146.03558l-58.07,10.21646a2.28661,2.28661,0,0,0-1.76314,1.53344,2.34079,2.34079,0,0,0,1.77932,3.03776l17.89012,3.151,6.89723,1.21317,33.231,5.84582c.1237.02531.35713.04687.40809.05139a.14284.14284,0,0,0,.02017.00039,3.644,3.644,0,0,0,.41685-.04155l33.23093-5.84585,6.89725-1.21314L118.408,37.26642V59.32174a4.57542,4.57542,0,0,0-2.15857,3.88675v9.16357a4.57941,4.57941,0,0,0,9.15882,0V63.2085A4.57542,4.57542,0,0,0,123.24971,59.32174Z"/></svg>